<svg width="312" height="224" viewBox="0 0 312 224" fill="none" xmlns="http://www.w3.org/2000/svg">
<path d="M-0.000177652 101.818V-6.96182e-05H68.6078V17.7485H21.5268V42.0099H65.078V59.7585H21.5268V84.0695H68.8066V101.818H-0.000177652ZM148.613 -6.96182e-05H170.14V66.1221C170.14 73.5463 168.367 80.0425 164.82 85.6107C161.307 91.1789 156.385 95.5208 150.055 98.6363C143.724 101.719 136.35 103.26 127.931 103.26C119.48 103.26 112.088 101.719 105.758 98.6363C99.4275 95.5208 94.5056 91.1789 90.9924 85.6107C87.4791 80.0425 85.7225 73.5463 85.7225 66.1221V-6.96182e-05H107.249V64.2826C107.249 68.1604 108.095 71.6074 109.785 74.6235C111.508 77.6396 113.928 80.0094 117.044 81.7329C120.159 83.4564 123.788 84.3181 127.931 84.3181C132.107 84.3181 135.737 83.4564 138.819 81.7329C141.935 80.0094 144.338 77.6396 146.028 74.6235C147.751 71.6074 148.613 68.1604 148.613 64.2826V-6.96182e-05ZM-0.000177652 221.818V120H67.4146V137.749H21.5268V162.01H62.9402V179.758H21.5268V221.818H-0.000177652ZM102.676 120V221.818H81.4966V120H102.676ZM154.144 223.31C146.421 223.31 139.743 221.669 134.108 218.388C128.507 215.073 124.182 210.466 121.133 204.567C118.083 198.634 116.559 191.757 116.559 183.935C116.559 176.046 118.083 169.152 121.133 163.253C124.182 157.32 128.507 152.713 134.108 149.432C139.743 146.117 146.421 144.46 154.144 144.46C161.867 144.46 168.528 146.117 174.13 149.432C179.764 152.713 184.106 157.32 187.155 163.253C190.205 169.152 191.729 176.046 191.729 183.935C191.729 191.757 190.205 198.634 187.155 204.567C184.106 210.466 179.764 215.073 174.13 218.388C168.528 221.669 161.867 223.31 154.144 223.31ZM154.243 206.903C157.757 206.903 160.69 205.909 163.043 203.92C165.396 201.899 167.17 199.148 168.363 195.668C169.589 192.187 170.202 188.227 170.202 183.785C170.202 179.344 169.589 175.383 168.363 171.903C167.17 168.423 165.396 165.672 163.043 163.65C160.69 161.629 157.757 160.618 154.243 160.618C150.697 160.618 147.714 161.629 145.295 163.65C142.908 165.672 141.102 168.423 139.876 171.903C138.682 175.383 138.086 179.344 138.086 183.785C138.086 188.227 138.682 192.187 139.876 195.668C141.102 199.148 142.908 201.899 145.295 203.92C147.714 205.909 150.697 206.903 154.243 206.903ZM218.65 221.818L197.869 145.454H219.297L231.129 196.761H231.825L244.155 145.454H265.184L277.713 196.463H278.359L289.993 145.454H311.371L290.639 221.818H268.217L255.092 173.793H254.148L241.023 221.818H218.65Z" fill="black"/>
<path d="M-0.000177652 101.818V-6.96182e-05H68.6078V17.7485H21.5268V42.0099H65.078V59.7585H21.5268V84.0695H68.8066V101.818H-0.000177652ZM148.613 -6.96182e-05H170.14V66.1221C170.14 73.5463 168.367 80.0425 164.82 85.6107C161.307 91.1789 156.385 95.5208 150.055 98.6363C143.724 101.719 136.35 103.26 127.931 103.26C119.48 103.26 112.088 101.719 105.758 98.6363C99.4275 95.5208 94.5056 91.1789 90.9924 85.6107C87.4791 80.0425 85.7225 73.5463 85.7225 66.1221V-6.96182e-05H107.249V64.2826C107.249 68.1604 108.095 71.6074 109.785 74.6235C111.508 77.6396 113.928 80.0094 117.044 81.7329C120.159 83.4564 123.788 84.3181 127.931 84.3181C132.107 84.3181 135.737 83.4564 138.819 81.7329C141.935 80.0094 144.338 77.6396 146.028 74.6235C147.751 71.6074 148.613 68.1604 148.613 64.2826V-6.96182e-05ZM-0.000177652 221.818V120H67.4146V137.749H21.5268V162.01H62.9402V179.758H21.5268V221.818H-0.000177652ZM102.676 120V221.818H81.4966V120H102.676ZM154.144 223.31C146.421 223.31 139.743 221.669 134.108 218.388C128.507 215.073 124.182 210.466 121.133 204.567C118.083 198.634 116.559 191.757 116.559 183.935C116.559 176.046 118.083 169.152 121.133 163.253C124.182 157.32 128.507 152.713 134.108 149.432C139.743 146.117 146.421 144.46 154.144 144.46C161.867 144.46 168.528 146.117 174.13 149.432C179.764 152.713 184.106 157.32 187.155 163.253C190.205 169.152 191.729 176.046 191.729 183.935C191.729 191.757 190.205 198.634 187.155 204.567C184.106 210.466 179.764 215.073 174.13 218.388C168.528 221.669 161.867 223.31 154.144 223.31ZM154.243 206.903C157.757 206.903 160.69 205.909 163.043 203.92C165.396 201.899 167.17 199.148 168.363 195.668C169.589 192.187 170.202 188.227 170.202 183.785C170.202 179.344 169.589 175.383 168.363 171.903C167.17 168.423 165.396 165.672 163.043 163.65C160.69 161.629 157.757 160.618 154.243 160.618C150.697 160.618 147.714 161.629 145.295 163.65C142.908 165.672 141.102 168.423 139.876 171.903C138.682 175.383 138.086 179.344 138.086 183.785C138.086 188.227 138.682 192.187 139.876 195.668C141.102 199.148 142.908 201.899 145.295 203.92C147.714 205.909 150.697 206.903 154.243 206.903ZM218.65 221.818L197.869 145.454H219.297L231.129 196.761H231.825L244.155 145.454H265.184L277.713 196.463H278.359L289.993 145.454H311.371L290.639 221.818H268.217L255.092 173.793H254.148L241.023 221.818H218.65Z" fill="#3B82F6"/>
</svg>
